<?xml version="1.0" standalone="no"?>
<!DOCTYPE svg PUBLIC "-//W3C//DTD SVG 20010904//EN"
 "http://www.w3.org/TR/2001/REC-SVG-20010904/DTD/svg10.dtd">
<svg version="1.0" xmlns="http://www.w3.org/2000/svg"
 width="516.000000pt" height="506.000000pt" viewBox="0 0 516.000000 506.000000"
 preserveAspectRatio="xMidYMid meet">
<metadata>
Created by potrace 1.15, written by Peter Selinger 2001-2017
</metadata>
<g transform="translate(0.000000,506.000000) scale(0.100000,-0.100000)"
fill="#000000" stroke="none">
<path d="M570 4919 c-83 -14 -173 -61 -241 -126 -70 -67 -104 -119 -130 -204
-18 -59 -19 -129 -19 -2025 l0 -1964 240 0 240 0 0 1920 0 1920 1920 0 1920 0
0 -1920 0 -1920 240 0 240 0 0 1973 0 1974 -24 62 c-34 86 -56 119 -125 185
-71 66 -159 111 -251 126 -82 13 -3930 12 -4010 -1z" fill="#fff" />
<path d="M1860 3480 l0 -480 240 0 240 0 0 480 0 480 -240 0 -240 0 0 -480z" fill="#fff" />
<path d="M2820 3480 l0 -480 240 0 240 0 0 480 0 480 -240 0 -240 0 0 -480z" fill="#fff" />
<path d="M1384 2434 c26 -341 188 -646 454 -856 37 -29 69 -55 72 -58 26 -27
232 -121 326 -148 l99 -28 3 -612 2 -612 240 0 240 0 2 612 3 612 99 28 c94
27 300 121 326 148 3 3 35 29 72 58 266 210 428 515 454 856 l7 86 -1203 0
-1203 0 7 -86z" fill="#fff" />
</g>
</svg>
