<?xml version="1.0" encoding="utf-8"?>
<!-- Generator: Adobe Illustrator 19.1.0, SVG Export Plug-In . SVG Version: 6.00 Build 0)  -->
<svg version="1.1" id="Layer_1" xmlns="http://www.w3.org/2000/svg" xmlns:xlink="http://www.w3.org/1999/xlink" x="0px" y="0px"
	 viewBox="0 0 100 100" style="enable-background:new 0 0 100 100;" xml:space="preserve" >
	 <circle cx="50" cy="50" r="40" fill="#fff" />
<path d="M50,0C22.4,0,0,22.4,0,50s22.4,50,50,50s50-22.4,50-50S77.6,0,50,0z M29.2,59.2v6h-4c-4.6,0-6.5-3.9-7.3-7.2
	c-1.5-6.3-1.5-10,0-16.3c1.1-4.5,4.4-7.2,8.8-7.2h25v-5.7H34.8v-4.7c0-4,0.7-5.9,7-7c2.4-0.4,5-0.6,8-0.7c2.8,0,5.6,0.2,8.2,0.7
	c3.5,0.6,7,3.2,7,7v16.1c0,3.8-3,6.8-6.7,6.8H41.5C34.9,47,29.2,52.6,29.2,59.2z M82,57.8c-1.9,5.6-3.5,7.4-6.8,7.4h-27v5.7h16.8
	v4.7c0,3.2-2.4,5.5-7.2,6.9C52.2,84,47.7,84,42,82.4c-2.7-0.8-7.2-2.7-7.2-6.9V59.4c0-3.7,3.1-6.8,6.7-6.8h16.8
	c6.7,0,12.3-5.7,12.3-12.4v-5.7h4.6c2.3,0,5.1,0.8,6.7,7.2C83.6,48.3,83.6,53,82,57.8z" fill="#F28C38" />
</svg>
