<?xml version="1.0" encoding="utf-8"?>
<!-- Generator: Adobe Illustrator 19.1.0, SVG Export Plug-In . SVG Version: 6.00 Build 0)  -->
<svg version="1.1" id="Layer_1" xmlns="http://www.w3.org/2000/svg" xmlns:xlink="http://www.w3.org/1999/xlink" x="0px" y="0px"
	 viewBox="0 0 100 100" style="enable-background:new 0 0 100 100;" xml:space="preserve">
<g>
	<circle cx="50" cy="50" r="40" fill="#fff" />
	<path fill="#F28C38" d="M50,0C22.4,0,0,22.4,0,50s22.4,50,50,50s50-22.4,50-50S77.6,0,50,0z M54.5,72.8L48.1,61c-0.8-1.5-1.5-2.5-2.2-3
		c-0.9-0.6-1.8-0.9-2.9-0.9H42v15.7H30V34.2h19.9c3.7,0,6.5,0.3,8.5,0.9c1.9,0.6,3.5,1.8,4.7,3.5c1.2,1.7,1.8,3.8,1.8,6.3
		c0,2.1-0.5,4-1.4,5.5c-0.9,1.6-2.2,2.8-3.8,3.8c-1,0.6-2.4,1.1-4.2,1.5c1.4,0.5,2.5,0.9,3.1,1.4c0.4,0.3,1.1,1,1.9,2
		c0.8,1,1.4,1.8,1.7,2.4L68,72.8H54.5z M78.9,37.9l-1,7.8c0,0-0.3,2.7-2.6,2.6c-2.3-0.1-3-1.8-3-1.8l-3.5-4.3l1.9-3.9l3.8,4.9
		l0.7-7.2l0.4-0.6l8-2l-7.9-2.8l0.5-7.5l-5.7,5.6l-7.7-2.3l3.3,5.3l-5.1,0c0,0-3-5-3.5-6c-0.5-1-0.8-4,2.4-3.4s9.5,2.7,9.5,2.7
		l5.5-5.5c0,0,3.2-2.5,4.9,0.2c0.5,2.9-0.2,8.6-0.2,8.6l8.3,3.1c0,0,3.6,1.6,1.9,3C88.2,35.7,78.9,37.9,78.9,37.9z"/>
	<path fill="#F28C38" d="M47.2,42H42v7.8h5c0.5,0,1.6-0.2,3.2-0.5c0.8-0.2,1.4-0.6,1.9-1.2c0.5-0.6,0.8-1.4,0.8-2.2c0-1.2-0.4-2.2-1.2-2.9
		C50.9,42.4,49.4,42,47.2,42z"/>
</g>
</svg>
