<?xml version="1.0" encoding="utf-8"?>
<!-- Generator: Adobe Illustrator 19.1.0, SVG Export Plug-In . SVG Version: 6.00 Build 0)  -->
<svg version="1.1" id="Layer_1" xmlns="http://www.w3.org/2000/svg" xmlns:xlink="http://www.w3.org/1999/xlink" x="0px" y="0px"
	 viewBox="0 0 100 100" style="enable-background:new 0 0 100 100;" xml:space="preserve">
<g>
	<circle cx="50" cy="50" r="40" fill="#fff" />
	<path d="M61.2,44.6c-2.3,0.2-4.5,0-6.8,0c-0.2,0-0.7,0-0.7,0c0,2.2,0,4.5,0,7.8c0,0,0.5,0,0.7,0c2.3,0,4.6-0.2,6.9-0.2
		c1.5,0,2.4-0.8,3.1-2C65.8,47.6,63.7,44.4,61.2,44.6z" fill="#F28C38" />
	<path d="M50,0C22.4,0,0,22.4,0,50s22.4,50,50,50c27.6,0,50-22.4,50-50S77.6,0,50,0z M55.1,69.9v-5.7c1.3,0,2.6-0.1,3.9-0.1l2.6,4.7
		C59.5,69.1,57.4,69.5,55.1,69.9z M80.9,76.4c-4.5,0-9,0-13.5,0c0,0,0,0-0.1,0l-7-12.6l0,0c0,0,0,0,0-0.1c-0.4-0.5-0.8-1-1.2-1.5
		c-0.6-0.6-1.3-1.1-2.1-1.1c-0.9-0.1-1.9,0-2.8,0c0,0,0,0,0,0h-0.3v9c0,0,0,0,0,0c0,2,0,4.6,0,6.9c-3.1,0-7.1,0-11.2,0V61.8
		c0-0.3,0-0.5,0-0.8c0-8.3,0-16.7,0-24.2c0,0,0,0,0.1,0c6.9,0,13.7-0.2,20.6-0.2c1.4,0,2.8,0,4.2,0.1c3,0.3,5.5,1.6,7.4,4
		c1.2,1.5,1.9,3.3,2,5.2c0.2,2.4,0,4.8-1.1,7c-1.1,2.3-3.1,3.7-5.5,4.6c-1.2,0.4-2.4,0.7-3.6,1.1c0.5,0.2,1,0.3,1.5,0.4
		c1,0.3,2.1,0.4,2.8,1.2c0,0,0.1,0,0.1,0.1l10.1,15.9C81,76.4,81,76.4,80.9,76.4z M83.8,53c-1.7,4.1-4.7,7.1-8.2,9.6
		c-0.3,0.2-0.7,0.5-1,0.7l-1.7-2.8c2.8-1.4,5.4-3.2,7.5-5.6c1.4-1.7,2.3-3.5,2.6-5.7c0.3-2.2-0.3-4.2-1.4-6.1
		c-1.7-2.7-4.1-4.5-6.8-6.1c-5.2-3-10.8-4.4-16.6-4.9c-2.9-0.3-5.8-0.2-8.7,0.2c-3,0.4-6,1.1-8.8,2.3c-3.3,1.4-6.2,3.3-8.5,6.2
		c-1.5,2-2.5,4.2-2.6,6.7c-0.2,3,0.9,5.6,2.9,7.9c2.1,2.5,5.1,4.3,8.1,5.7c0.2,0.1,0.5,0.2,0.7,0.3v7.9c-3-0.5-5.7-1.3-8.6-2.4
		c-5.1-2-9.7-4.8-13.3-9.1c-1.9-2.2-3.4-4.7-4.1-7.6c-0.2-0.9-0.5-1.7-0.5-2.6c0-0.6,0-1.3,0-1.9c0-0.1,0.1-0.2,0.2-0.3
		c0.2-2.3,0.9-4.5,2-6.5c2.2-4.1,5.5-7,9.4-9.4c6.6-4,13.8-5.8,21.4-6.1c3.4-0.2,6.9,0,10.3,0.5c4.6,0.7,9,2,13.2,4.1
		c4.1,2,7.6,4.6,10.4,8.3c2.1,2.8,3.4,6,3.7,9.5C85.3,48.2,84.8,50.7,83.8,53z" fill="#F28C38" />
</g>
</svg>
