<?xml version="1.0" encoding="UTF-8"?>
<svg width="28px" height="28px" viewBox="0 0 28 28" version="1.1" xmlns="http://www.w3.org/2000/svg" xmlns:xlink="http://www.w3.org/1999/xlink">
    <!-- Generator: Sketch 53.2 (72643) - https://sketchapp.com -->
    <title>DKU_dkubird</title>
    <desc>Created with Sketch.</desc>
    <g id="Test" stroke="none" stroke-width="1" fill="none" fill-rule="evenodd">
        <g id="Artboard" transform="translate(-11.000000, -11.000000)" fill="#000000" fill-rule="nonzero">
            <g id="DKU_dkubird" transform="translate(11.000000, 11.000000)">
                <path d="M25.94375,2.95265943 L28,1.07340964 L25.76875,1.81636886 C23.8875,-1.37398545 19.25,-0.193991391 19.25,4.04524653 L0,27.7762382 C0,27.7762382 0.0875,28.125866 0.39375,27.9510521 C0.875,27.6888312 2.31875,26.1155058 8.96875,19.7347972 C9.625,19.1229484 11.025,18.9918379 11.76875,18.9918379 C12.5125,18.9918379 14.74375,18.9918379 14.74375,18.9918379 L14.74375,17.5059195 L18.4625,17.5059195 C23.5375,17.5059195 26.38125,12.6548328 25.55,7.23560083 C25.15625,4.35117091 25.94375,2.95265943 25.94375,2.95265943 Z M24.0625,2.95265943 C24.0625,3.47710124 23.625,3.87043259 23.14375,3.87043259 C22.6625,3.87043259 22.225,3.43339775 22.225,2.95265943 C22.225,2.47192111 22.6625,2.03488628 23.14375,2.03488628 C23.625,2.03488628 24.0625,2.42821763 24.0625,2.95265943 Z" id="XMLID_17_"></path>
                <polygon id="XMLID_16_" transform="translate(22.018325, 20.506985) rotate(90.000000) translate(-22.018325, -20.506985) " points="21.0711222 14.7101096 22.9655278 14.7101096 22.9655278 26.3038596 21.0711222 26.3038596"></polygon>
            </g>
        </g>
    </g>
</svg>