<?xml version="1.0" encoding="utf-8"?>
<!-- Generator: Adobe Illustrator 19.1.0, SVG Export Plug-In . SVG Version: 6.00 Build 0)  -->
<svg version="1.1" id="Layer_1" xmlns="http://www.w3.org/2000/svg" xmlns:xlink="http://www.w3.org/1999/xlink" x="0px" y="0px"
	 viewBox="0 0 100 100" style="enable-background:new 0 0 100 100;" xml:space="preserve">
<circle cx="50" cy="50" r="40" fill="#fff" />

<path fill="#F28C38" d="M50,0C22.4,0,0,22.4,0,50s22.4,50,50,50s50-22.4,50-50S77.6,0,50,0z M33.6,58.9v4.2h-2.9c-3.3,0-4.6-2.8-5.2-5.1
	c-1.1-4.5-1.1-7.1,0-11.6c0.8-3.2,3.1-5.1,6.3-5.1h17.8v-4h-12v-3.3c0-2.9,0.5-4.2,5-5c1.7-0.3,3.6-0.5,5.7-0.5c2,0,4,0.2,5.9,0.5
	c2.5,0.4,5,2.3,5,5v11.4c0,2.7-2.1,4.9-4.8,4.9h-12C37.6,50.2,33.6,54.2,33.6,58.9z M71.2,57.9c-1.3,4-2.5,5.2-4.8,5.2H47.1v4h12
	v3.3c0,2.3-1.7,3.9-5.1,4.9c-4,1.2-7.3,1.2-11.3,0c-1.9-0.6-5.1-1.9-5.1-4.9V59.1c0-2.6,2.2-4.9,4.8-4.9h12c4.7,0,8.8-4.1,8.8-8.9
	v-4.1h3.3c1.6,0,3.7,0.6,4.8,5.1C72.3,51.1,72.3,54.5,71.2,57.9z M77.3,32.1l0.1,7.8c0,0,0.1,2.7-2.2,2.9c-2.2,0.2-3.2-1.3-3.2-1.3
	L68,37.8l1.3-4.2l4.4,4.3l-0.3-7.3l0.3-0.7l7.7-3.1l-8.2-1.7l-0.6-7.5l-4.8,6.4l-8-1.2l4.1,4.8l-5,0.7c0,0-3.7-4.5-4.4-5.4
	s-1.3-3.8,1.9-3.8s9.8,1.3,9.8,1.3l4.6-6.2c0,0,2.8-2.9,4.8-0.5c0.9,2.8,1.1,8.5,1.1,8.5l8.7,1.9c0,0,3.8,1.1,2.3,2.7
	S77.3,32.1,77.3,32.1z"/>
</svg>
