<?xml version="1.0" encoding="utf-8"?>
<!-- Generator: Adobe Illustrator 19.1.0, SVG Export Plug-In . SVG Version: 6.00 Build 0)  -->
<!DOCTYPE svg PUBLIC "-//W3C//DTD SVG 1.1//EN" "http://www.w3.org/Graphics/SVG/1.1/DTD/svg11.dtd">
<svg version="1.1" id="Layer_1" xmlns="http://www.w3.org/2000/svg" xmlns:xlink="http://www.w3.org/1999/xlink" x="0px" y="0px"
	 viewBox="0 0 100 100" style="enable-background:new 0 0 100 100;" xml:space="preserve">
<circle cx="50" cy="50" r="40" fill="#fff" />
<path d="M50,0C22.4,0,0,22.4,0,50s22.4,50,50,50c27.6,0,50-22.4,50-50S77.6,0,50,0z M31.6,79.6l-5.7-13.2l5.6-7.7l2.5,2.8l-5.1,5.2
	l2.9,13L31.6,79.6z M64.6,81.6h-1L60,60.7h-2.1l-3.5,20.9h-1l-0.4-20.9h-9.8l-7.7,7.8l2.9,13l-0.2,0.1l-7.7-13.3l4.9-6.5l-6.7-7.1
	l6.1-8.3l24.6,0V30.9l0,0c-5-0.6-9-4.7-9.4-9.8c4,0.3,7.3,2.7,8.9,6.1l5.9,9L64.6,81.6z M65.9,30.7c-0.1-0.1-0.1-0.1-0.2-0.2
	c0.5-5.2,4.7-9.3,9.9-9.7C75.2,26.1,71.1,30.2,65.9,30.7z" fill="#F28C38"/>
</svg>
