<?xml version="1.0" encoding="utf-8"?>
<!-- Generator: Adobe Illustrator 19.1.0, SVG Export Plug-In . SVG Version: 6.00 Build 0)  -->
<svg version="1.1" id="Layer_1" xmlns="http://www.w3.org/2000/svg" xmlns:xlink="http://www.w3.org/1999/xlink" x="0px" y="0px"
	 viewBox="0 0 100 100" style="enable-background:new 0 0 100 100;" xml:space="preserve" >
<g>
	<circle cx="50" cy="50" r="50" fill="#fff" />
	<path d="M59.6,40c-1.8-2-4.1-3-6.8-3c-2.7,0-4.9,1-6.8,3c-1.8,2-2.8,4.5-2.8,7.3c0,2.9,0.9,5.3,2.8,7.3c1.8,2,4.1,3,6.8,3
		c2.7,0,4.9-1,6.8-3c1.8-2,2.8-4.4,2.8-7.3C62.4,44.5,61.4,42,59.6,40z" fill="#F28C38" />
	<path d="M96.8,56.7h2.7c0.3-2.2,0.5-4.4,0.5-6.7c0-27.6-22.4-50-50-50S0,22.4,0,50c0,1,0,2,0.1,3.1h10.3l0,0c0,0,0,0,0,0h0v0
		c3.5,3,6.6,4.5,9.6,4.5c1.3,0,2.4-0.3,3.1-0.9c0.7-0.6,1.1-1.3,1.1-2.3c0-1-0.4-1.7-1.2-2.3c-0.8-0.6-2.4-1.1-4.7-1.7
		c-3.7-0.9-6.5-2-8.2-3.5s-2.6-3.7-2.6-6.7c0-3.1,1.1-5.4,3.3-7.1c2.2-1.7,4.9-2.5,8.2-2.5c2.1,0,4.3,0.4,6.4,1.1
		c2.1,0.7,4,1.8,5.6,3.1l-3.6,5.2C24.6,38,21.7,37,18.7,37c-1.2,0-2.1,0.3-2.8,0.9c-0.7,0.6-1,1.3-1,2.3c0,0.9,0.4,1.7,1.3,2.2
		c0.8,0.6,2.8,1.2,5.8,2c3.1,0.8,5.4,1.9,7.1,3.4c1.7,1.5,2.5,3.7,2.5,6.6s-1.1,5.2-3.2,7c-2.2,1.8-5,2.7-8.5,2.7
		c-4.5,0-8.7-1.5-12.4-4.5H0.9C5.3,82.5,25.7,100,50,100c22.9,0,42.3-15.5,48.2-36.6h-1.5h-6h-15V31h7.8v25.7H96.8z M62.3,69.7
		c-1.8,0-3.7-0.5-5.4-1.5c-1.8-1-3.1-2.4-4.1-4.3c-4.8,0-8.8-1.6-12-4.8c-3.3-3.2-4.9-7.1-4.9-11.8c0-4.7,1.6-8.7,4.9-11.8
		c3.3-3.2,7.3-4.8,12-4.8c4.8,0,8.8,1.6,12,4.8c3.2,3.2,4.9,7.1,4.9,11.8c0,3.3-0.9,6.4-2.6,9c-1.7,2.7-4,4.7-6.9,6
		c0.3,0.5,0.7,0.9,1.3,1.2c0.6,0.3,1.2,0.5,1.9,0.5c0.6,0,1.3-0.1,1.9-0.3c0.6-0.2,1.1-0.4,1.5-0.7c0.8-0.6,1.4-1.3,1.7-1.9l3.7,4.5
		C69.6,68.3,66.3,69.7,62.3,69.7z" fill="#F28C38" />
</g>
</svg>
