<?xml version="1.0" encoding="utf-8"?>
<!-- Generator: Adobe Illustrator 19.1.0, SVG Export Plug-In . SVG Version: 6.00 Build 0)  -->
<svg version="1.1" id="Calque_1" xmlns="http://www.w3.org/2000/svg" xmlns:xlink="http://www.w3.org/1999/xlink" x="0px" y="0px"
	 viewBox="0 0 100 100" style="enable-background:new 0 0 100 100;" xml:space="preserve">
<circle cx="50" cy="50" r="40" fill="#fff" />
<path d="M50,0C22.4,0,0,22.4,0,50s22.4,50,50,50s50-22.4,50-50S77.6,0,50,0z M28.2,29.5c1.9-2,5.3-3,10.1-3.1c2.7,0,5.6,0.3,8.5,0.8
	c6.1,1.1,12.2,3.1,16.6,4.8l0.1,0.1c-2,1.1-4.7,2.5-7.7,3.9c-2,1-4.2,1.9-6.4,2.8c-2.9,1.2-5.9,2.2-8.7,2.9
	c-1.9,0.5-3.8,0.8-5.5,0.9c-0.4,0-0.8,0.1-1.2,0.1c-1.9,0-3.4-0.3-4.5-0.9c-1.9-1-2.9-2.8-3.1-5.6C26.1,33.3,26.7,31.1,28.2,29.5z
	 M30.6,75.6c-1.2,0-2.3-0.4-3.3-1c-0.2-0.2-0.4-0.3-0.6-0.5l0,0l-0.2-0.2c-0.2-0.2-0.4-0.4-0.6-0.7c-0.8-1-1.2-2.3-1.2-3.6
	s-0.4-1.9,0.3-2.9l8.3,8.3C32.3,75.7,31.9,75.6,30.6,75.6z M41,72.4L27.6,59c0.3-2.3,0.9-4.8,1.9-7.3l19,19
	C45.9,71.6,43.4,72.2,41,72.4z M53.2,63.8L37,47.5c2.4-0.3,5-0.9,7.6-1.6l10.3,10.3C54.1,58.7,53.5,61.3,53.2,63.8z M53.1,42.8
	c2.2-0.9,4.4-1.9,6.4-2.9l1.4,1.4c-1,2-2,4.1-2.9,6.4L53.1,42.8z M72.5,70.9c-1.6,2.6-4.1,3.7-8.1,3.4c-3.7-0.3-5-1.9-5.6-3
	c-0.1-0.2-0.1-0.4-0.2-0.5C58,69.2,57.8,67.3,58,65c0.1-1.5,0.4-3.2,0.8-4.9c0.7-2.8,1.7-5.8,2.9-8.7c0.9-2.2,1.8-4.4,2.8-6.5
	c1.3-2.8,2.7-5.4,3.9-7.7l0.1,0.1c1.8,4.5,3.8,10.7,4.9,16.8C74.6,60.8,74.7,67.2,72.5,70.9z M75.7,37.9c-0.3,0.8-0.6,1.6-0.9,2.3
	c-1.3-3.8-2.6-6.9-3.6-8.8c-0.1-0.5-0.4-0.9-0.7-1.2c-0.3-0.4-0.7-0.6-1.2-0.7c-1.9-1-4.8-2.2-8.2-3.4c0.1,0,0.2-0.1,0.3-0.1
	l0.5-0.2c2-0.8,5.4-2,8.5-2c2,0,3.5,0.5,4.7,1.7C77.7,28,77.9,32.2,75.7,37.9z" fill="#F28C38"/>
</svg>
