<?xml version="1.0" encoding="utf-8"?>
<!-- Generator: Adobe Illustrator 19.1.0, SVG Export Plug-In . SVG Version: 6.00 Build 0)  -->
<svg version="1.1" id="Layer_1" xmlns="http://www.w3.org/2000/svg" xmlns:xlink="http://www.w3.org/1999/xlink" x="0px" y="0px"
	 viewBox="0 0 100 100" style="enable-background:new 0 0 100 100;" xml:space="preserve">
	 <circle cx="50" cy="50" r="40" fill="#fff" />

	<path fill="#F28C38"  d="M50,0C22.4,0,0,22.4,0,50s22.4,50,50,50s50-22.4,50-50S77.6,0,50,0z M48.8,38.2c12.9-1.9,13.7-4.1,13.7-4.5
	c0,0.7,0,7.8,0,10.4c-0.2,0.5-0.8,1-1.6,1.5c0.3,0.1,1.8,0.6,1.6,1.8c0,0,0,0,0,0c0,0,0,0,0,0s0,7.1,0,10.3c-0.4,0.6-1,1.1-1.7,1.5
	c-3,1.7-8.1,2.3-8.1,2.3L35.3,64V53.8c0,0,1.1-0.4,10.1-1.6c1.1-0.1,2.3-0.3,3.7-0.5c10.6-1.3,13-3.6,13.4-4.3c0,0,0-0.1,0-0.1
	c0.2-1.2-1.2-1.7-1.6-1.8c-2.5,1.3-7,2.1-8.8,2.4c-2.4,0.5-16.8,2.5-16.8,2.5V40.3C35.3,40.3,34.6,40.3,48.8,38.2z M51,75.4
	c-7,1.2-8.2,1.1-15.7,2.3V67.4c0,0,5.9-0.8,10.4-1.5c2.4-0.4,4.4-0.7,5-0.8c1.7-0.4,9.6-1.3,11.8-4c0,0,0,0,0,0c0,3.1,0,10.4,0,10.4
	S63.1,73.2,51,75.4z M75.2,34.6l0.1,7.8c0,0,0.1,2.7-2.2,2.9c-2.2,0.2-3.2-1.4-3.2-1.4l-4-3.8l1.4-4.2l4.4,4.3l-0.3-7.3l0.3-0.7
	l7.7-3.1l-8.2-1.7l-0.6-7.5l-4.8,6.4l-8-1.2l4,4.8l-5,0.7c0,0-3.7-4.5-4.3-5.5c-0.7-0.9-1.3-3.8,1.9-3.7c3.2,0.1,9.8,1.4,9.8,1.4
	l4.7-6.2c0,0,2.8-2.9,4.8-0.4c0.9,2.8,1,8.5,1,8.5l8.6,1.9c0,0,3.8,1.1,2.3,2.8C84.1,31.2,75.2,34.6,75.2,34.6z"/>
</svg>
