<?xml version="1.0" encoding="utf-8"?>
<!-- Generator: Adobe Illustrator 19.1.0, SVG Export Plug-In . SVG Version: 6.00 Build 0)  -->
<svg version="1.1" id="Layer_1" xmlns="http://www.w3.org/2000/svg" xmlns:xlink="http://www.w3.org/1999/xlink" x="0px" y="0px"
	 viewBox="0 0 100 100" style="enable-background:new 0 0 100 100;" xml:space="preserve" >
<g>
	<circle cx="50" cy="50" r="40" fill="#fff" />
	<path fill="#F28C38" d="M34.6,45.3c0-2.1-1.6-3.7-3.8-3.7c-2.7,0-5,2.3-5,4.9c0,2.2,1.6,3.8,3.9,3.8C32.2,50.3,34.6,47.8,34.6,45.3z"/>
	<path fill="#F28C38" d="M50,0C22.4,0,0,22.4,0,50s22.4,50,50,50s50-22.4,50-50S77.6,0,50,0z M11.4,53.3c-1.7-0.7-2.5-2.1-3-3.9
		c1.1-0.6,2.2-1.2,3.5-1.9c0.2,0.4,0.4,0.7,0.6,1.1c0.9,1.6,2.8,2,4.3,0.9c0.9-0.7,1-1.8,0.2-2.9c-1-1.3-2.2-2.6-3.3-3.8
		c-2.2-2.4-2.5-4.6-1-6.9c1.7-2.6,4.9-3.7,7.6-2.8c1.3,0.4,2.4,1.5,3.1,2.8c-1.1,0.8-2.2,1.7-3.3,2.5c-0.4-0.5-0.8-1.1-1.1-1.4
		c-0.7-0.7-1.4-0.6-1.9-0.6c-1.4,0.2-2.1,1.5-1.2,2.6c0.9,1.1,1.9,2.2,3,3.3c2.7,2.8,3.2,5.4,1.3,8.2C18.4,53.4,14.4,54.5,11.4,53.3
		z M24.2,57.7H21c0,0,1.1-8.6,1.4-11.6c0.5-4,3.7-7.3,7.6-7.9c5.1-0.7,8.8,3.4,7.7,8.5c-1,4.7-6.1,7.8-10.7,6.5
		c-0.7-0.2-1.3-0.5-2.2-0.9C24.8,53.4,24.2,57.7,24.2,57.7z M33.5,75.7c-3.8,0-7.1-1.7-7.1-5.9h4.3c0.1,1.9,1.3,2.6,3.1,2.6
		c1.3,0,2.6-0.5,2.6-1.7c0-1.4-2.3-1.7-4.7-2.4c-2.3-0.7-4.8-1.7-4.8-4.7c0-3.6,3.6-5,6.7-5c3.3,0,6.6,1.6,6.6,5.3h-4.3
		c0.1-1.5-1.3-2-2.6-2c-0.9,0-2.1,0.3-2.1,1.4c0,1.3,2.4,1.5,4.8,2.2c2.4,0.7,4.8,1.8,4.8,4.7C40.6,74.3,37.1,75.7,33.5,75.7z
		 M39.3,45.8c0.7-4.3,4.2-7.4,8.3-7.6c4.2-0.2,7.4,2.9,7.1,7.1c-0.2,2.4-1,7.9-1,7.9h-3.2c0.1-1.2,0.3-2.3,0.4-3.4
		c0.1-1.2,0.4-2.3,0.4-3.5c0.1-2.3-0.9-4.1-2.5-4.5c-2-0.6-4.5,0.5-5.5,2.4c-1,1.9-0.8,3.9,0.5,5.1c1.4,1.3,3.5,1.4,5.3,0.2
		c0.3-0.2,0.5-0.4,1-0.7l-0.6,4.1c-2.7,1.1-5.2,1.2-7.6-0.5C39.7,50.8,38.9,48.5,39.3,45.8z M58.2,75l-2,2l-2.3-2.2
		c-1.1,0.6-2.4,0.9-3.8,0.9c-5.2,0-8.1-3.8-8.1-8.6c0-4.8,2.9-8.6,8.1-8.6s8.1,3.8,8.1,8.6c0,2.3-0.7,4.4-2,6L58.2,75z M59.9,43.7
		c-0.4,2.7-0.7,5.5-1.1,8.2c-0.1,0.4-0.2,0.8-0.3,1.2c-1.1,0-2.1,0-3.2,0c0-0.6,0-1.2,0.1-1.7c0.4-3,0.8-6.1,1.2-9.1
		c0.3-1.8,1.4-3.1,3.2-3.6c1.2-0.3,2.5-0.2,3.8-0.4c-0.2,1.3-0.3,2.3-0.4,3.4c-0.5,0-0.9,0.1-1.3,0.1C60.5,42,60.1,42.3,59.9,43.7z
		 M72.5,75.3H60.5V58.9h4.3v12.7h7.7V75.3z M73.5,53.2c-1.6-2.5-5.3-7.8-5.3-7.8l-0.8,7.8c0,0-2.5,0-3.8,0l2.2-17l3.9-2.7
		c-0.4,3-0.9,8.6-0.9,8.6s3.8-4.2,5.8-6.5c0.2,1.3,0.4,2.4,0.7,3.6c-1.4,1.5-2.7,2.9-4.2,4.4c2.3,3.2,4.5,6.3,6.8,9.6
		C76.4,53.2,75,53.2,73.5,53.2z M81.5,31.2c0,0,2.1,4.4,2.9,6.1c1.1,2.3-0.1,4.1-2.6,3.7c-1.8-0.3-5.4-1.6-5.4-1.6l-0.5-3.2l5.1,1.3
		l-3-6.4l5.4-6.3l-7.8,1.9l-3.6-5.9l-1.4,7.3L63,30.9l5.5,2.1l-3.6,2.4c0,0-3.4-1.5-5-2.4c-0.9-0.5-1.4-1.3-1.3-2.3
		c0.1-1,0.8-1.5,1.7-1.8c1.9-0.6,7.7-2.7,7.7-2.7s1-5,1.3-6.6c0.4-1.9,0.8-2.8,2.2-3c1.3-0.2,1.9,0.8,2.5,1.7c1,1.7,3.1,5.2,3.1,5.2
		s7.6-1.9,8.8-2.2c1-0.2,1.5,0.4,1.7,0.9c0.5,1-0.7,2.3-1.1,2.8C85.1,26.8,81.5,31.2,81.5,31.2z"/>
	<path fill="#F28C38" d="M50.1,62.2c-2.8,0-3.8,2.4-3.8,4.9c0,2.4,1.1,4.9,3.8,4.9c0.3,0,0.6,0,0.9-0.1l-1.3-1.3l1.9-2l1.6,1.6
		c0.5-0.9,0.7-2,0.7-3.1C53.9,64.7,52.9,62.2,50.1,62.2z"/>
</g>
</svg>
