<?xml version="1.0" encoding="utf-8"?>
<!-- Generator: Adobe Illustrator 21.0.0, SVG Export Plug-In . SVG Version: 6.00 Build 0)  -->
<svg version="1.1" id="Calque_1" xmlns="http://www.w3.org/2000/svg" xmlns:xlink="http://www.w3.org/1999/xlink" x="0px" y="0px"
	 viewBox="0 0 64 64" style="enable-background:new 0 0 64 64;" xml:space="preserve">
<g>
	<g>
		<path d="M40.7,9.8c0,0.1-0.1,0.3-0.1,0.5C36.3,25.1,32,39.9,27.8,54.7c-0.4,1.2-0.7,1.4-2,1.1c-0.5-0.1-1-0.3-1.5-0.4
			c-1-0.3-1.2-0.8-0.9-1.7c2.2-7.6,4.4-15.2,6.6-22.8c2.1-7.2,4.1-14.3,6.2-21.5c0.1-0.3,0.1-0.5,0.3-0.8c0.2-0.5,0.7-0.7,1.2-0.6
			c0.8,0.2,1.5,0.4,2.3,0.6C40.4,8.8,40.7,9.2,40.7,9.8z" fill="#F28C38" />
		<path d="M6.3,32c0.2,0.2,0.3,0.3,0.4,0.4c4.3,4.3,8.6,8.6,12.9,12.9c1,1,1,1.4,0,2.4c-0.4,0.4-0.8,0.9-1.3,1.3
			c-0.6,0.6-1.2,0.6-1.8,0C11.2,43.6,5.8,38.3,0.5,32.9c-0.6-0.6-0.6-1.2,0-1.8c5.3-5.3,10.7-10.7,16-16c0.7-0.7,1.2-0.7,1.9,0
			c0.5,0.5,0.9,0.9,1.4,1.4c0.7,0.8,0.7,1.3,0,2.1c-2.4,2.4-4.7,4.7-7.1,7.1c-2,2-4,4-6,6C6.6,31.7,6.4,31.8,6.3,32z" fill="#F28C38" />
		<path d="M57.9,32c-0.3-0.2-0.5-0.3-0.6-0.5c-4.3-4.3-8.7-8.6-13-13c-0.8-0.8-0.8-1.3,0-2.1c0.5-0.5,0.9-1,1.4-1.4
			c0.6-0.5,1.1-0.5,1.7-0.1c0.1,0.1,0.2,0.2,0.3,0.3c5.2,5.2,10.4,10.4,15.6,15.6c0.2,0.2,0.3,0.3,0.5,0.5c0.3,0.4,0.3,0.8,0,1.2
			c-0.1,0.2-0.3,0.4-0.5,0.5c-5.2,5.2-10.4,10.4-15.6,15.6c-0.9,0.9-1.4,0.9-2.3,0c-0.4-0.4-0.8-0.8-1.2-1.2c-0.7-0.7-0.7-1.2,0-2
			c4.4-4.4,8.7-8.7,13.1-13.1C57.4,32.4,57.6,32.2,57.9,32z" fill="#F28C38" />
	</g>
</g>
</svg>
