<?xml version="1.0" encoding="UTF-8"?>
<svg width="24px" height="24px" viewBox="0 0 24 24" version="1.1" xmlns="http://www.w3.org/2000/svg" xmlns:xlink="http://www.w3.org/1999/xlink">
    <!-- Generator: Sketch 59.1 (86144) - https://sketch.com -->
    <title>icon-dku-wiki</title>
    <desc>Created with Sketch.</desc>
    <g id="icon-dku-wiki" stroke="none" stroke-width="1" fill="none" fill-rule="evenodd">
        <path d="M4,12 L20,12 C21.0543618,12 21.9181651,12.8158778 21.9945143,13.8507377 L22,14 L22,22 L20,22 L20,14 L4,14 L4,22 L2,22 L2,14 C2,12.8954305 2.8954305,12 4,12 Z M18,20 L18,22 L6,22 L6,20 L18,20 Z M18,16 L18,18 L6,18 L6,16 L18,16 Z M18,6 C19.0543618,6 19.9181651,6.81587779 19.9945143,7.85073766 L20,8 L20,10 L18,10 L18,8 L6,8 L6,10 L4,10 L4,8 C4,6.8954305 4.8954305,6 6,6 L18,6 Z M16,2 C17.0543618,2 17.9181651,2.81587779 17.9945143,3.85073766 L18,4 L6,4 C6,2.8954305 6.8954305,2 8,2 L16,2 Z" id="Combined-Shape" fill="#427B98"></path>
    </g>
</svg>